<svg id="visual" viewBox="0 0 5000 780" width="5000" height="780" xmlns="http://www.w3.org/2000/svg" xmlns:xlink="http://www.w3.org/1999/xlink" version="1.1"><rect x="0" y="0" width="5000" height="780" fill="#001220"></rect><path d="M0 430L69.5 405.2C139 380.3 278 330.7 416.8 319.3C555.7 308 694.3 335 833.2 362.2C972 389.3 1111 416.7 1250 433.7C1389 450.7 1528 457.3 1666.8 467C1805.7 476.7 1944.3 489.3 2083.2 505.8C2222 522.3 2361 542.7 2500 552.2C2639 561.7 2778 560.3 2916.8 523.5C3055.7 486.7 3194.3 414.3 3333.2 395C3472 375.7 3611 409.3 3750 402.8C3889 396.3 4028 349.7 4166.8 350.2C4305.7 350.7 4444.3 398.3 4583.2 425.8C4722 453.3 4861 460.7 4930.5 464.3L5000 468L5000 0L4930.5 0C4861 0 4722 0 4583.2 0C4444.3 0 4305.7 0 4166.8 0C4028 0 3889 0 3750 0C3611 0 3472 0 3333.2 0C3194.3 0 3055.7 0 2916.8 0C2778 0 2639 0 2500 0C2361 0 2222 0 2083.2 0C1944.3 0 1805.7 0 1666.8 0C1528 0 1389 0 1250 0C1111 0 972 0 833.2 0C694.3 0 555.7 0 416.8 0C278 0 139 0 69.5 0L0 0Z" fill="#fa7268"></path><path d="M0 341L69.5 314.8C139 288.7 278 236.3 416.8 211.7C555.7 187 694.3 190 833.2 224.2C972 258.3 1111 323.7 1250 354.5C1389 385.3 1528 381.7 1666.8 373.8C1805.7 366 1944.3 354 2083.2 339.8C2222 325.7 2361 309.3 2500 297C2639 284.7 2778 276.3 2916.8 292.2C3055.7 308 3194.3 348 3333.2 341.3C3472 334.7 3611 281.3 3750 277.5C3889 273.7 4028 319.3 4166.8 347.8C4305.7 376.3 4444.3 387.7 4583.2 367.3C4722 347 4861 295 4930.5 269L5000 243L5000 0L4930.5 0C4861 0 4722 0 4583.2 0C4444.3 0 4305.7 0 4166.8 0C4028 0 3889 0 3750 0C3611 0 3472 0 3333.2 0C3194.3 0 3055.7 0 2916.8 0C2778 0 2639 0 2500 0C2361 0 2222 0 2083.2 0C1944.3 0 1805.7 0 1666.8 0C1528 0 1389 0 1250 0C1111 0 972 0 833.2 0C694.3 0 555.7 0 416.8 0C278 0 139 0 69.5 0L0 0Z" fill="#e34c67"></path><path d="M0 141L69.5 143.2C139 145.3 278 149.7 416.8 167.7C555.7 185.7 694.3 217.3 833.2 230.7C972 244 1111 239 1250 227.3C1389 215.7 1528 197.3 1666.8 181.7C1805.7 166 1944.3 153 2083.2 151.8C2222 150.7 2361 161.3 2500 173.8C2639 186.3 2778 200.7 2916.8 213.2C3055.7 225.7 3194.3 236.3 3333.2 226.2C3472 216 3611 185 3750 188.5C3889 192 4028 230 4166.8 249.5C4305.7 269 4444.3 270 4583.2 260.3C4722 250.7 4861 230.3 4930.5 220.2L5000 210L5000 0L4930.5 0C4861 0 4722 0 4583.2 0C4444.3 0 4305.7 0 4166.8 0C4028 0 3889 0 3750 0C3611 0 3472 0 3333.2 0C3194.3 0 3055.7 0 2916.8 0C2778 0 2639 0 2500 0C2361 0 2222 0 2083.2 0C1944.3 0 1805.7 0 1666.8 0C1528 0 1389 0 1250 0C1111 0 972 0 833.2 0C694.3 0 555.7 0 416.8 0C278 0 139 0 69.5 0L0 0Z" fill="#c62368"></path></svg>